<svg preserveAspectRatio="none" width="100%" height="100%" overflow="visible" style="display: block;" viewBox="0 0 28 29" fill="none" xmlns="http://www.w3.org/2000/svg">
<path id="path" d="M20 3H23V0H20V3ZM5 3H8V0H5V3ZM10 3H13V0H10V3ZM15 3H18V0H15V3ZM25 0V3H28V0H25ZM0 3H3V0H0V3ZM5 29H8V26H5V29ZM15 29H18V26H15V29ZM10 29H13V26H10V29ZM20 29H23V26H20V29ZM25 29H28V26H25V29ZM0 29H3V26H0V29ZM25 8H28V5H25V8ZM25 13H28V10H25V13ZM25 18H28V15H25V18ZM25 24H28V21H25V24ZM0 8H3V5H0V8ZM0 14H3V11H0V14ZM0 19H3V16H0V19ZM0 24H3V21H0V24Z" fill="var(--fill-0, black)"/>
</svg>
