<svg preserveAspectRatio="none" width="100%" height="100%" overflow="visible" style="display: block;" viewBox="0 0 25 25" fill="none" xmlns="http://www.w3.org/2000/svg">
<g id="path" filter="url(#filter0_d_5926_11589)">
<path d="M11.35 16.8C6.45 16.8 2.9 13.25 1.65 11.8C2.4 10.95 3.95 9.35 6.1 8.2L5.35 7.45C2.2 9.25 0.35 11.8 0.35 11.8C0.35 11.8 4.65 17.8 11.35 17.8C12.7 17.8 13.95 17.55 15.05 17.2L14.25 16.4C13.35 16.65 12.4 16.8 11.35 16.8ZM15.15 13.05C15.3 12.65 15.35 12.25 15.35 11.8C15.35 9.6 13.55 7.8 11.35 7.8C10.9 7.8 10.5 7.85 10.1 8L10.95 8.85C11.1 8.85 11.2 8.8 11.35 8.8C13 8.8 14.35 10.15 14.35 11.8C14.35 11.95 14.35 12.05 14.3 12.2L15.15 13.05ZM11.35 6.8C16.25 6.8 19.8 10.35 21.05 11.8C20.4 12.55 19.05 13.95 17.2 15.05L17.95 15.8C20.75 14.05 22.35 11.8 22.35 11.8C22.35 11.8 18.05 5.8 11.35 5.8C10.3 5.8 9.25 5.95 8.3 6.2L9.15 7.05C9.85 6.9 10.6 6.8 11.35 6.8ZM7.8 9.95C7.5 10.5 7.35 11.15 7.35 11.8C7.35 14 9.15 15.8 11.35 15.8C12 15.8 12.65 15.65 13.2 15.35L12.45 14.6C12.1 14.7 11.75 14.8 11.35 14.8C9.7 14.8 8.35 13.45 8.35 11.8C8.35 11.4 8.45 11.05 8.55 10.7L7.8 9.95ZM0.7 0L0 0.7L22 22.7L22.7 22L0.7 0Z" fill="var(--fill-0, white)" fill-opacity="0.8" shape-rendering="crispEdges"/>
</g>
<defs>
<filter id="filter0_d_5926_11589" x="0" y="0" width="24.7" height="24.7" filterUnits="userSpaceOnUse" color-interpolation-filters="sRGB">
<feFlood flood-opacity="0" result="BackgroundImageFix"/>
<feColorMatrix in="SourceAlpha" type="matrix" values="0 0 0 0 0 0 0 0 0 0 0 0 0 0 0 0 0 0 127 0" result="hardAlpha"/>
<feOffset dx="1" dy="1"/>
<feGaussianBlur stdDeviation="0.5"/>
<feComposite in2="hardAlpha" operator="out"/>
<feColorMatrix type="matrix" values="0 0 0 0 0 0 0 0 0 0 0 0 0 0 0 0 0 0 1 0"/>
<feBlend mode="normal" in2="BackgroundImageFix" result="effect1_dropShadow_5926_11589"/>
<feBlend mode="normal" in="SourceGraphic" in2="effect1_dropShadow_5926_11589" result="shape"/>
</filter>
</defs>
</svg>
