<svg preserveAspectRatio="none" width="100%" height="100%" overflow="visible" style="display: block;" viewBox="0 0 30 20" fill="none" xmlns="http://www.w3.org/2000/svg">
<path id="path" d="M9.33333 19.6364C3.87019 18.8606 0 16.928 0 14.6667C0 11.7211 6.56649 9.33333 14.6667 9.33333C22.7668 9.33333 29.3333 11.7211 29.3333 14.6667C29.3333 16.928 25.4631 18.8606 20 19.6364V16.96C22.6093 16.5437 24.6093 15.7793 26 14.6667C23.7778 12.8889 20 12 14.6667 12C9.33333 12 5.55556 12.8889 3.33333 14.6667C4.72407 15.7793 6.72407 16.5437 9.33333 16.96V19.6364ZM17.3333 1.33333C17.3333 2.06933 16.1396 2.66667 14.6667 2.66667C13.1938 2.66667 12 2.06933 12 1.33333C12 0.597333 13.1938 0 14.6667 0C16.1396 0 17.3333 0.597333 17.3333 1.33333Z" fill="var(--fill-0, #8C8C8C)"/>
</svg>
