<svg preserveAspectRatio="none" width="100%" height="100%" overflow="visible" style="display: block;" viewBox="0 0 30 30" fill="none" xmlns="http://www.w3.org/2000/svg">
<path id="path" d="M14.6667 0C22.7669 0 29.3333 6.56648 29.3333 14.6667C29.3333 22.7669 22.7669 29.3333 14.6667 29.3333C6.56648 29.3333 0 22.7669 0 14.6667C0 6.56648 6.56648 0 14.6667 0ZM14.6667 1.33333C7.30286 1.33333 1.33333 7.30286 1.33333 14.6667C1.33333 22.0305 7.30286 28 14.6667 28C22.0305 28 28 22.0305 28 14.6667C28 7.30286 22.0305 1.33333 14.6667 1.33333ZM14.6667 6.66667C19.085 6.66667 22.6667 10.2484 22.6667 14.6667C22.6667 19.085 19.085 22.6667 14.6667 22.6667C10.2484 22.6667 6.66667 19.085 6.66667 14.6667C6.66667 10.2484 10.2484 6.66667 14.6667 6.66667Z" fill="var(--fill-0, white)"/>
</svg>
